<?xml version="1.0" encoding="UTF-8"?>
<svg width="86px" height="28px" viewBox="0 0 86 28" version="1.1" xmlns="http://www.w3.org/2000/svg" xmlns:xlink="http://www.w3.org/1999/xlink">
    <!-- Generator: Sketch 55.2 (78181) - https://sketchapp.com -->
    <title>white-logo</title>
    <desc>Created with Sketch.</desc>
    <defs>
        <rect id="path-1" x="0" y="0" width="27.9509202" height="28" rx="13.9754601"></rect>
        <polygon id="path-3" points="0.0001 0.15 5.6601 0.15 5.6601 15.9998 0.0001 15.9998"></polygon>
        <polygon id="path-5" points="0.203 0.15 5.853 0.15 5.853 11.0698 0.203 11.0698"></polygon>
    </defs>
    <g id="Home-Page-" stroke="none" stroke-width="1" fill="none" fill-rule="evenodd">
        <g id="white-logo">
            <path d="M43.6933594,6 C45.1901117,6 46.4397736,6.4833936 47.4423828,7.45019531 C48.444992,8.41699702 48.9462891,9.63085207 48.9462891,11.0917969 C48.9462891,12.5455802 48.444992,13.7558545 47.4423828,14.7226562 C46.4397736,15.689458 45.1901117,16.1728516 43.6933594,16.1728516 L40.5351562,16.1728516 L40.5351562,21.4042969 L38,21.4042969 L38,6 L43.6933594,6 Z M43.5751953,13.7773438 C44.3916056,13.7773438 45.0629856,13.5231145 45.5893555,13.0146484 C46.1157253,12.5061824 46.3789062,11.8652382 46.3789062,11.0917969 C46.3789062,10.3183555 46.1157253,9.6774114 45.5893555,9.16894531 C45.0629856,8.66047923 44.3916056,8.40625 43.5751953,8.40625 L40.5351562,8.40625 L40.5351562,13.7773438 L43.5751953,13.7773438 Z M60.1279297,9.51269531 L62.0078125,9.5234375 L62.0078125,21.3935547 L60.0419922,21.3935547 L59.8056641,19.9541016 C59.2613905,20.5055366 58.6204464,20.9334295 57.8828125,21.237793 C57.1451786,21.5421565 56.3502647,21.6943359 55.4980469,21.6943359 C54.3378848,21.6943359 53.285161,21.4239936 52.3398438,20.8833008 C51.3945265,20.342608 50.653323,19.5942431 50.1162109,18.6381836 C49.5790989,17.6821241 49.3105469,16.6204485 49.3105469,15.453125 C49.3105469,14.27864 49.5790989,13.2169644 50.1162109,12.2680664 C50.653323,11.3191684 51.3945265,10.5761746 52.3398438,10.0390625 C53.285161,9.50195044 54.3378848,9.23339844 55.4980469,9.23339844 C56.3574262,9.23339844 57.1595015,9.38736825 57.9042969,9.6953125 C58.6490923,10.0032567 59.2936171,10.4401013 59.8378906,11.0058594 L60.1279297,9.51269531 Z M52.8984375,18.2460938 C53.6360714,18.9837276 54.563471,19.3525391 55.6806641,19.3525391 C56.7978571,19.3525391 57.7234664,18.9819373 58.4575195,18.2407227 C59.1915727,17.499508 59.5585938,16.5703181 59.5585938,15.453125 C59.5585938,14.3359319 59.1915727,13.4085323 58.4575195,12.6708984 C57.7234664,11.9332645 56.7978571,11.5644531 55.6806641,11.5644531 C54.563471,11.5644531 53.6360714,11.9350549 52.8984375,12.6762695 C52.1608036,13.4174842 51.7919922,14.3430934 51.7919922,15.453125 C51.7919922,16.5703181 52.1608036,17.5012984 52.8984375,18.2460938 Z M70.8798828,9.23339844 C72.0472064,9.23339844 73.0999302,9.50195044 74.0380859,10.0390625 C74.9762417,10.5761746 75.7084935,11.3209588 76.2348633,12.2734375 C76.7612331,13.2259162 77.0244141,14.2893821 77.0244141,15.4638672 C77.0244141,17.2470792 76.4425514,18.733067 75.2788086,19.921875 C74.1150658,21.110683 72.6487719,21.7050781 70.8798828,21.7050781 C69.3544846,21.7050781 68.0367894,21.2252652 66.9267578,20.265625 L66.9267578,25.6582031 L64.4882812,25.6582031 L64.4882812,9.5234375 L66.1318359,9.5234375 L66.59375,10.984375 C67.1380236,10.4257785 67.7771773,9.99430491 68.5112305,9.68994141 C69.2452836,9.38557791 70.0348265,9.23339844 70.8798828,9.23339844 Z M67.8935547,18.2460938 C68.6383501,18.9908891 69.5693304,19.3632812 70.6865234,19.3632812 C71.8037165,19.3632812 72.7275354,18.9926795 73.4580078,18.2514648 C74.1884802,17.5102502 74.5537109,16.5810603 74.5537109,15.4638672 C74.5537109,14.3466741 74.1884802,13.4174842 73.4580078,12.6762695 C72.7275354,11.9350549 71.8037165,11.5644531 70.6865234,11.5644531 C69.5693304,11.5644531 68.6401404,11.9368452 67.8989258,12.6816406 C67.1577111,13.426436 66.7871094,14.3538356 66.7871094,15.4638672 C66.7871094,16.5738988 67.1559208,17.5012984 67.8935547,18.2460938 Z M84.3496094,9.45898438 L85.4023438,9.45898438 L85.4023438,11.7685547 L84.1132812,11.7685547 C83.1106721,11.7685547 82.3551458,12.0478488 81.8466797,12.6064453 C81.3382136,13.1650419 81.0839844,13.9850206 81.0839844,15.0664062 L81.0839844,21.4042969 L78.6455078,21.4042969 L78.6455078,9.5234375 L80.2998047,9.5234375 L80.7080078,11.1455078 C81.5530641,10.0211532 82.7669192,9.45898438 84.3496094,9.45898438 Z" id="Papr" fill="#FFFFFF" fill-rule="nonzero"></path>
            <g id="Icon">
                <mask id="mask-2" fill="white">
                    <use xlink:href="#path-1"></use>
                </mask>
                <use id="Rectangle" fill="#FF1D50" xlink:href="#path-1"></use>
                <g mask="url(#mask-2)">
                    <g transform="translate(9.000000, 6.000000)">
                        <g id="Group-3" transform="translate(0.000000, 0.850000)">
                            <mask id="mask-4" fill="white">
                                <use xlink:href="#path-3"></use>
                            </mask>
                            <g id="Clip-2"></g>
                            <path d="M5.6601,0.1498 L5.6601,10.5398 C5.6601,10.7198 5.6501,10.8898 5.6301,11.0698 C5.3601,13.8298 2.9401,15.9998 0.0001,15.9998 L0.0001,5.6098 C0.0001,5.4298 0.0101,5.2498 0.0301,5.0798 C0.3001,2.3198 2.7201,0.1498 5.6601,0.1498" id="Fill-1" fill="#FFFFFF" mask="url(#mask-4)"></path>
                        </g>
                        <g id="Group-6" transform="translate(6.000000, 0.850000)">
                            <mask id="mask-6" fill="white">
                                <use xlink:href="#path-5"></use>
                            </mask>
                            <g id="Clip-5"></g>
                            <path d="M5.853,5.6098 C5.853,8.6298 3.323,11.0698 0.203,11.0698 L0.203,0.1498 C3.323,0.1498 5.853,2.5998 5.853,5.6098" id="Fill-4" fill="#FFFFFF" opacity="0.600000024" mask="url(#mask-6)"></path>
                        </g>
                    </g>
                </g>
            </g>
        </g>
    </g>
</svg>