<?xml version="1.0" encoding="UTF-8"?>
<svg width="102px" height="34px" viewBox="0 0 102 34" version="1.1" xmlns="http://www.w3.org/2000/svg" xmlns:xlink="http://www.w3.org/1999/xlink">
    <!-- Generator: Sketch 55.2 (78181) - https://sketchapp.com -->
    <title>logo-black</title>
    <desc>Created with Sketch.</desc>
    <defs>
        <rect id="path-1" x="0" y="0" width="33.9404032" height="34" rx="16.9702016"></rect>
        <polygon id="path-3" points="0.000121428571 0.182142857 6.87297857 0.182142857 6.87297857 19.4283286 0.000121428571 19.4283286"></polygon>
        <polygon id="path-5" points="0.2465 0.182142857 7.10721429 0.182142857 7.10721429 13.4419 0.2465 13.4419"></polygon>
    </defs>
    <g id="Home-Page-" stroke="none" stroke-width="1" fill="none" fill-rule="evenodd">
        <g id="logo-black">
            <path d="M51.0562221,7.28571429 C52.873707,7.28571429 54.3911537,7.87269223 55.6086077,9.04666574 C56.8260617,10.2206392 57.4347796,11.6946061 57.4347796,13.4686105 C57.4347796,15.2339188 56.8260617,16.7035377 55.6086077,17.8775112 C54.3911537,19.0514847 52.873707,19.6384626 51.0562221,19.6384626 L47.2212612,19.6384626 L47.2212612,25.9909319 L44.1428571,25.9909319 L44.1428571,7.28571429 L51.0562221,7.28571429 Z M50.9127372,16.7296317 C51.9040926,16.7296317 52.7193397,16.4209248 53.3585031,15.8035017 C53.9976664,15.1860786 54.3172433,14.4077893 54.3172433,13.4686105 C54.3172433,12.5294317 53.9976664,11.7511424 53.3585031,11.1337193 C52.7193397,10.5162962 51.9040926,10.2075893 50.9127372,10.2075893 L47.2212612,10.2075893 L47.2212612,16.7296317 L50.9127372,16.7296317 Z M71.012486,11.55113 L73.2952009,11.5641741 L73.2952009,25.9778878 L70.9081334,25.9778878 L70.6211635,24.2299805 C69.9602599,24.8995802 69.1819706,25.4191644 68.2862723,25.7887486 C67.390574,26.1583329 66.4253214,26.3431222 65.3904855,26.3431222 C63.9817173,26.3431222 62.7034098,26.0148494 61.5555246,25.3582938 C60.4076393,24.7017383 59.5076065,23.7930094 58.855399,22.6320801 C58.2031915,21.4711507 57.8770926,20.1819732 57.8770926,18.7645089 C57.8770926,17.3383485 58.2031915,16.049171 58.855399,14.8969378 C59.5076065,13.7447045 60.4076393,12.8424977 61.5555246,12.1902902 C62.7034098,11.5380827 63.9817173,11.2119838 65.3904855,11.2119838 C66.4340175,11.2119838 67.4079661,11.3989472 68.3123605,11.7728795 C69.2167549,12.1468118 69.9993922,12.6772659 70.6602958,13.3642578 L71.012486,11.55113 Z M62.233817,22.155971 C63.1295153,23.0516693 64.2556433,23.4995117 65.6122349,23.4995117 C66.9688265,23.4995117 68.0927806,23.0494953 68.9841309,22.1494489 C69.8754811,21.2494026 70.3211496,20.1211005 70.3211496,18.7645089 C70.3211496,17.4079173 69.8754811,16.2817893 68.9841309,15.386091 C68.0927806,14.4903927 66.9688265,14.0425502 65.6122349,14.0425502 C64.2556433,14.0425502 63.1295153,14.4925666 62.233817,15.392613 C61.3381187,16.2926594 60.8902762,17.4166134 60.8902762,18.7645089 C60.8902762,20.1211005 61.3381187,21.2515766 62.233817,22.155971 Z M84.0684291,11.2119838 C85.4858934,11.2119838 86.764201,11.5380827 87.9033901,12.1902902 C89.0425792,12.8424977 89.9317421,13.7468785 90.5709054,14.9034598 C91.2100688,16.0600411 91.5296456,17.3513926 91.5296456,18.777553 C91.5296456,20.9428819 90.8230981,22.7472956 89.4099819,24.1908482 C87.9968656,25.6344008 86.2163658,26.3561663 84.0684291,26.3561663 C82.2161598,26.3561663 80.6161014,25.7735363 79.2682059,24.6082589 L79.2682059,31.1563895 L76.3071987,31.1563895 L76.3071987,11.5641741 L78.3029436,11.5641741 L78.8638393,13.3381696 C79.5247429,12.6598738 80.3008582,12.1359417 81.1922084,11.7663574 C82.0835587,11.3967732 83.0422893,11.2119838 84.0684291,11.2119838 Z M80.4421735,22.155971 C81.346568,23.0603654 82.477044,23.5125558 83.8336356,23.5125558 C85.1902272,23.5125558 86.3120073,23.0625394 87.1990095,22.162493 C88.0860117,21.2624467 88.5295061,20.1341446 88.5295061,18.777553 C88.5295061,17.4209614 88.0860117,16.2926594 87.1990095,15.392613 C86.3120073,14.4925666 85.1902272,14.0425502 83.8336356,14.0425502 C82.477044,14.0425502 81.3487419,14.4947406 80.4486956,15.399135 C79.5486492,16.3035294 79.0986328,17.4296575 79.0986328,18.777553 C79.0986328,20.1254485 79.5464752,21.2515766 80.4421735,22.155971 Z M100.424526,11.4859096 L101.702846,11.4859096 L101.702846,14.2903878 L100.137556,14.2903878 C98.9201018,14.2903878 98.002677,14.6295306 97.3852539,15.3078265 C96.7678308,15.9861223 96.4591239,16.9818108 96.4591239,18.2949219 L96.4591239,25.9909319 L93.4981166,25.9909319 L93.4981166,11.5641741 L95.5069057,11.5641741 L96.0025809,13.5338309 C97.0287207,12.1685432 98.5026876,11.4859096 100.424526,11.4859096 Z" id="Papr-Copy" fill="#121213" fill-rule="nonzero"></path>
            <g id="Mark-">
                <mask id="mask-2" fill="white">
                    <use xlink:href="#path-1"></use>
                </mask>
                <use id="Rectangle" fill="#FF1D50" xlink:href="#path-1"></use>
                <g id="Icon" mask="url(#mask-2)">
                    <g transform="translate(10.928571, 7.285714)">
                        <g id="Group-3" transform="translate(0.000000, 1.032143)">
                            <mask id="mask-4" fill="white">
                                <use xlink:href="#path-3"></use>
                            </mask>
                            <g id="Clip-2"></g>
                            <path d="M6.87297857,0.1819 L6.87297857,12.7983286 C6.87297857,13.0169 6.86083571,13.2233286 6.83655,13.4419 C6.50869286,16.7933286 3.57012143,19.4283286 0.000121428571,19.4283286 L0.000121428571,6.8119 C0.000121428571,6.59332857 0.0122642857,6.37475714 0.03655,6.16832857 C0.364407143,2.8169 3.30297857,0.1819 6.87297857,0.1819" id="Fill-1" fill="#FFFFFF" mask="url(#mask-4)"></path>
                        </g>
                        <g id="Group-6" transform="translate(7.285714, 1.032143)">
                            <mask id="mask-6" fill="white">
                                <use xlink:href="#path-5"></use>
                            </mask>
                            <g id="Clip-5"></g>
                            <path d="M7.10721429,6.8119 C7.10721429,10.4790429 4.03507143,13.4419 0.2465,13.4419 L0.2465,0.1819 C4.03507143,0.1819 7.10721429,3.1569 7.10721429,6.8119" id="Fill-4" fill="#FFFFFF" opacity="0.600000024" mask="url(#mask-6)"></path>
                        </g>
                    </g>
                </g>
            </g>
        </g>
    </g>
</svg>