<?xml version="1.0" encoding="utf-8"?>
<!-- Generator: Adobe Illustrator 27.4.1, SVG Export Plug-In . SVG Version: 6.00 Build 0)  -->
<svg version="1.1" id="Layer_1" xmlns="http://www.w3.org/2000/svg" xmlns:xlink="http://www.w3.org/1999/xlink" x="0px" y="0px"
	 viewBox="0 0 682.8 912.9" style="enable-background:new 0 0 682.8 912.9;" xml:space="preserve">
<style type="text/css">
	.st0{fill:#AD0D07;}
	.st1{fill:#FFFFFF;}
</style>
<g>
	<rect x="140.4" y="114" width="82.1" height="792.6"/>
	<g>
		<polygon points="400,526.9 614.2,312.8 415.4,114 298.3,114 497,312.8 283.1,526.7 		"/>
	</g>
	<g>
		<g>
			<circle class="st0" cx="113.8" cy="114" r="108.8"/>
		</g>
		<g>
			<path class="st1" d="M101.5,116.7V157H68v-40.2c0-15.4,3.1-27.9,9.3-37.6c6.2-9.6,15.3-15.5,27.3-17.4v16.6
				c-11,3.3-16.4,16.1-16.4,38.2H101.5z M156.5,116.7V157H123v-40.2c0-15.4,3.1-27.9,9.3-37.6c6.2-9.6,15.3-15.5,27.3-17.4v16.6
				c-11,3.3-16.4,16.1-16.4,38.2H156.5z"/>
		</g>
	</g>
	<g>
		<path d="M302.2,707.3h-19.1V592.6h19.1v18.6c6.5-12.8,18.8-20.7,37.1-20.7v19.7h-5c-18.2,0-32,8.2-32,34.8V707.3z"/>
		<path d="M410.8,709.2c-32.7,0-56.7-23-56.7-59.5c0-36.2,23.2-59,56.7-59c33.3,0,55.1,23.4,55.1,54.9c0,4.2-0.2,7.5-0.6,11.5h-91.7
			c1.5,23.2,17.8,36,37.3,36c17.2,0,28.1-8.8,32.2-21.1h20.5C457.7,692.9,439.3,709.2,410.8,709.2z M373.8,641.6h72.4
			c0.2-22.4-16.5-34.8-36.2-34.8C391.4,606.8,375.9,619.2,373.8,641.6z"/>
		<path d="M531.6,709.2c-26.8,0-45.6-14.7-46.9-35.6h19.7c1,11.1,10.9,19.5,27,19.5c15.1,0,23.4-7.5,23.4-17
			c0-25.5-67.8-10.7-67.8-53.4c0-17.6,16.5-32,42.1-32c25.3,0,42.1,13.6,43.3,36h-19.1c-0.8-11.5-9.6-19.9-24.9-19.9
			c-14,0-22.4,6.7-22.4,15.9c0,27.2,66.6,12.4,67.4,53.4C573.5,695,557,709.2,531.6,709.2z"/>
		<path d="M640.9,709.2c-26.8,0-45.6-14.7-46.9-35.6h19.7c1,11.1,10.9,19.5,27,19.5c15.1,0,23.4-7.5,23.4-17
			c0-25.5-67.8-10.7-67.8-53.4c0-17.6,16.5-32,42.1-32c25.3,0,42.1,13.6,43.3,36h-19.1c-0.8-11.5-9.6-19.9-24.9-19.9
			c-14,0-22.4,6.7-22.4,15.9c0,27.2,66.6,12.4,67.4,53.4C682.8,695,666.2,709.2,640.9,709.2z"/>
		<path d="M336.3,903.9c-34.7,0-60.3-24.5-60.3-63.2c0-38.5,24.7-62.8,60.3-62.8c35.4,0,58.6,24.9,58.6,58.3c0,4.5-0.2,8-0.7,12.2
			h-97.5c1.6,24.7,18.9,38.3,39.6,38.3c18.3,0,29.8-9.4,34.3-22.5h21.8C386.2,886.5,366.6,903.9,336.3,903.9z M296.9,832h77
			c0.2-23.8-17.6-37-38.5-37C315.6,795,299.2,808.2,296.9,832z"/>
		<path d="M471.9,777.9c22.7,0,38.3,11.6,45.4,24.3v-22.3h20.5v122h-20.5v-22.7c-7.3,13.1-23.2,24.7-45.6,24.7
			c-32.5,0-57.7-25.6-57.7-63.5C414,802.4,439.2,777.9,471.9,777.9z M475.9,795.5c-22.3,0-41.2,16.3-41.2,45s18.9,45.6,41.2,45.6
			s41.4-16.7,41.4-45.4C517.4,812.4,498.2,795.5,475.9,795.5z"/>
		<g>
			<path class="st0" d="M592.4,831.1v70.8h-20.3V746.7h20.3v71.9l64.1-71.9h25.6l-70.4,77.7l71,77.5h-26.5L592.4,831.1z"/>
		</g>
	</g>
</g>
</svg>
